<svg xmlns="http://www.w3.org/2000/svg" viewBox="0 0 256 256"><defs><style>.cls-1{fill:#3fa9f5;}</style></defs><g id="Layer_2" data-name="Layer 2" transform="rotate(0 128 128)"><g id="Joycons_R" data-name="Joycons R" transform="translate(75.305 0)"><path id="R_Body" data-name="R Body" class="cls-1" d="M8.11,249.13,8.05,1.52C8,.4,8.33.06,9.49.06,25.64.1,41.8-.15,58,.16c15.62.3,28.33,6.89,37.81,19.37a45.86,45.86,0,0,1,9.55,28.17c.09,17.29,0,34.58,0,51.87,0,36.48.14,73-.06,109.42-.08,13.56-5.53,25.07-15.51,34.27A46.94,46.94,0,0,1,56.6,256q-23.43-.09-46.85,0C8.42,256,8,255.68,8,254.31"/><polygon id="R_Rail" data-name="R Rail" points="8.04 8.78 0.23 8.78 0 245.07 8.11 245.07 8.04 8.78"/><path id="R_Thumb" data-name="R Thumb" d="M79.05,158.11a29,29,0,1,1-28.93-29.05A28.8,28.8,0,0,1,79.05,158.11Z"/><path id="R_Extra" data-name="R Extra" d="M16.54,28.35c0-1.35.06-2.71,0-4.05-.06-1,.23-1.35,1.25-1.3,1.78.07,3.57-.05,5.35,0,1.17.06,1.65-.21,1.56-1.49-.12-1.72,0-3.46,0-5.18,0-1,.22-1.35,1.25-1.33,2.75.06,5.51.05,8.26,0,.91,0,1.24.27,1.21,1.2,0,1.72.09,3.46,0,5.18,0,1.17.22,1.65,1.49,1.58,1.78-.1,3.57.05,5.35,0,.93,0,1.22.3,1.21,1.21,0,2.76,0,5.51,0,8.27,0,1-.33,1.31-1.3,1.28-1.89-.06-3.79,0-5.68,0-.85,0-1.13.27-1.11,1.11,0,1.95,0,3.9,0,5.84,0,.92-.29,1.22-1.21,1.2-2.81-.06-5.62-.08-8.43,0-1,0-1.15-.4-1.13-1.25,0-1.89-.06-3.79,0-5.68,0-.94-.31-1.21-1.22-1.18-1.78,0-3.57-.11-5.34,0-1.36.09-1.65-.44-1.56-1.65S16.54,29.59,16.54,28.35Z"/><path id="R_U" data-name="R U" d="M56.88,68.55A13.11,13.11,0,1,1,70,55.36,13.21,13.21,0,0,1,56.88,68.55Z"/><path id="R_D" data-name="R D" d="M70,108.42a13.16,13.16,0,1,1-26.31,0,13.16,13.16,0,0,1,26.31,0Z"/><path id="R_L" data-name="R L" d="M43.68,81.7A13.11,13.11,0,1,1,30.61,68.5,13.12,13.12,0,0,1,43.68,81.7Z"/><path id="R_R" data-name="R R" d="M96.16,81.62a13.13,13.13,0,1,1-26.26-.07,13.13,13.13,0,0,1,26.26.07Z"/><path id="R_Home" data-name="R Home" d="M38.12,216.78a10.51,10.51,0,1,1-21-.05,10.51,10.51,0,0,1,21,.05Z"/></g></g></svg>