<svg xmlns="http://www.w3.org/2000/svg" viewBox="0 0 256 256"><defs><style>.cls-1{fill:#3fa9f5;}</style></defs><g id="Layer_2" data-name="Layer 2" transform="rotate(0 128 128)"><g id="Joycons_L" data-name="Joycons L" transform="translate(75.275 0)"><path id="L_Body" data-name="L Body" class="cls-1" d="M97.35,254.31c0,1.37-.38,1.69-1.71,1.69q-23.43-.08-46.85,0a47,47,0,0,1-33.18-12.72C5.64,234.06.19,222.55.11,209-.09,172.52,0,136.05,0,99.57.05,82.28,0,65,.07,47.7A45.87,45.87,0,0,1,9.63,19.53C19.11,7.05,31.82.46,47.44.16,63.59-.15,79.75.1,95.9.06c1.16,0,1.45.34,1.44,1.46l-.06,247.61"/><polygon id="L_Rail" data-name="L Rail" points="105.38 8.78 97.56 8.78 97.34 245.07 105.45 245.07 105.38 8.78"/><path id="L_Thumb" data-name="L Thumb" d="M52.82,47.07a29,29,0,1,1-.1,58.06c-16.56,0-29-13.74-28.95-29.12A29,29,0,0,1,52.82,47.07Z"/><path id="L_Up" data-name="L Up" d="M65.91,134.3a13.26,13.26,0,0,1-13.29,13c-7.79,0-13.2-7.14-13-13.58a13.13,13.13,0,0,1,26.26.57Z"/><path id="L_Right" data-name="L Right" d="M79,173.4a13.08,13.08,0,1,1,13.16-13.1A13.06,13.06,0,0,1,79,173.4Z"/><path id="L_Left" data-name="L Left" d="M26.5,173.4a13.08,13.08,0,1,1,13.23-13A13,13,0,0,1,26.5,173.4Z"/><path id="L_Down" data-name="L Down" d="M65.91,187.27A13.12,13.12,0,1,1,53.15,174,13,13,0,0,1,65.91,187.27Z"/><path id="L_Extra" data-name="L Extra" d="M74.36,28.36c-4,0-8.1,0-12.15,0-1.07,0-1.37-.31-1.34-1.36.07-2.7.07-5.41,0-8.1,0-1,.26-1.29,1.27-1.29q12.15.06,24.3,0c1,0,1.42.22,1.39,1.34-.07,2.7,0,5.4,0,8.1,0,1.06-.29,1.39-1.36,1.37-4.05-.05-8.1,0-12.15,0Z"/><path id="L_Home" data-name="L Home" d="M69.57,208.66c2.21,0,4.42,0,6.63,0,1.75,0,2.65.82,2.67,2.56q.07,6.72,0,13.44a2.19,2.19,0,0,1-2.41,2.44q-6.8.06-13.6,0c-1.66,0-2.42-.89-2.42-2.59q0-6.63,0-13.28c0-1.71.88-2.52,2.64-2.55C65.25,208.64,67.41,208.66,69.57,208.66Z"/></g></g></svg>