<svg xmlns="http://www.w3.org/2000/svg" viewBox="0 0 256 256"><defs><style>.cls-1{fill:#3fa9f5;}</style></defs><g id="Layer_2" data-name="Layer 2" transform="rotate(0 128 128)"><path d="M230.51,71.49c-.49-.5-.23-2.54-.76-3a11.39,11.39,0,0,1-1.56-2.25,39.73,39.73,0,0,0-25.63-17.93c-7-1.55-14.26-2.15-21.41-3.09-6.92-.9-12.68,1.65-17.9,6a7.8,7.8,0,0,1-4.61,1.69l0,7h2.16a240.69,240.69,0,0,1,43.43,3.63c8.88,1.64,15.87,5.24,21.23,10.6C226.87,72.27,228.56,72.9,230.51,71.49Z"/><path d="M30,74.55c5.73-6,13.33-9.86,23-11.45A242.73,242.73,0,0,1,91.81,60h3.51v-7h-.95a8.26,8.26,0,0,1-4.63-1.66c-5-3.83-10.23-6.78-16.83-6.07-6.28.67-12.63.9-18.8,2.11C43.35,49.42,33.67,53.62,27.69,63.7c-1.23,2.07-2.54,4.11-3.85,6.13C25.7,71.59,28.21,72.69,30,74.55Z"/><path class="cls-1" d="M255.7,180.11c-.26,5.06-.1,12-1.09,18.72a35,35,0,0,1-13.73,23.31c-9.89,7.24-21.22,6.31-29.23-3-4-4.59-6.46-10.65-9.06-16-2.23-4.58-5-9.34-6.68-14.16-2.38-7-7.42-7.38-14.08-7.43-11-.07-21-.13-32-.14-25.36,0-49.72.07-75.08-.05-7.14,0-12.07.6-14.66,7.49C57.72,195.31,54,202,51.4,208,49,214,45.55,219.37,40,223c-6.75,4.45-13.81,5.08-21,1.15C7.87,218.13,1.82,207.41,1,195.09a203.06,203.06,0,0,1,.59-30.7c1.52-17.12,3.54-34.21,6-51.22,1.13-7.92,3.45-15.71,5.72-23.42,1.48-5,4.46-9.63,6.86-14.2C28.75,59.2,45.84,57.17,56.4,55.1c6.17-1.21,36.42-2.18,38-2.17q32.13.16,64.27,0c1.29,0,27.82.13,44.2,4.22s20.49,6.15,26.63,11.27c9.22,8.19,13,18.57,15.88,29.71,4.48,17.06,6.8,34.44,8.26,52C254.4,159.48,254.93,168.89,255.7,180.11Z"/><path d="M79.07,130.52c0-3.93,0-7.49,0-11.06,0-3.31.74-4,4.08-4,2.09,0,4.18,0,6.27,0,2.51-.06,3.65,1.13,3.61,3.63-.05,3.67,0,7.35,0,11.47,3.81,0,7.36,0,10.91,0s4.11.47,4.12,4.15c0,2.09,0,4.19,0,6.28,0,2.34-1.15,3.47-3.5,3.45-3.67,0-7.35,0-11.53,0,0,3.6,0,7,0,10.48,0,3.91-.61,4.49-4.5,4.51-2,0-4,0-6,0-2.39.06-3.48-1.11-3.48-3.44,0-3.69,0-7.37,0-11.56H68.62c-3.9,0-4.58-.66-4.57-4.46,0-10.76-1-9.34,9.38-9.43C75.21,130.51,77,130.52,79.07,130.52Z"/><path d="M53.18,122.22a21.88,21.88,0,0,1-21.9-21.72,22.38,22.38,0,0,1,22-22.11,22,22,0,0,1,22,21.91A22.27,22.27,0,0,1,53.18,122.22Z"/><path d="M140.92,137.31a22,22,0,1,1,22.09,22A21.81,21.81,0,0,1,140.92,137.31Z"/><path d="M177.46,90.79a9.16,9.16,0,1,1,0,18.31,9.16,9.16,0,0,1,0-18.31Z"/><path d="M219.62,109.07a9.13,9.13,0,1,1,.23-18.26,9.49,9.49,0,0,1,9.18,9.44A9.22,9.22,0,0,1,219.62,109.07Z"/><path d="M199.25,90.86a9.29,9.29,0,0,1-9.49-9.12,9.05,9.05,0,0,1,9-8.93c4.91,0,9.46,4.54,9.43,9.37A9,9,0,0,1,199.25,90.86Z"/><path d="M207.51,118.13a9.26,9.26,0,0,1-9.19,9.35,9.44,9.44,0,0,1-9.24-9.37,9.22,9.22,0,1,1,18.43,0Z"/><path d="M146.54,94.84a5,5,0,0,1,5,5.22,5.22,5.22,0,0,1-5.34,5,4.81,4.81,0,0,1-4.9-5.25A4.88,4.88,0,0,1,146.54,94.84Z"/><path d="M160.16,75.31a5.12,5.12,0,0,1,4.91,5,5.12,5.12,0,0,1-10.24-.06A5.35,5.35,0,0,1,160.16,75.31Z"/><path d="M108.37,105.51c-4.94,0-5.07-.13-5.08-4.92,0-5,.17-5.18,5.2-5.17s5.05,0,5,5.23C113.53,105.39,113.41,105.51,108.37,105.51Z"/><path d="M99.38,80.21a5.11,5.11,0,0,1-5,5.15,5,5,0,0,1-5.25-4.85,5.16,5.16,0,0,1,5.09-5.36A5.26,5.26,0,0,1,99.38,80.21Z"/></g></svg>